<?xml version="1.0" encoding="UTF-8"?>
<svg width="18px" height="17px" viewBox="0 0 18 17" version="1.1" xmlns="http://www.w3.org/2000/svg" xmlns:xlink="http://www.w3.org/1999/xlink">
    <!-- Generator: Sketch 52.2 (67145) - http://www.bohemiancoding.com/sketch -->
    <title>adjust</title>
    <desc>Created with Sketch.</desc>
    <g id="Case-Detail" stroke="none" stroke-width="1" fill="none" fill-rule="evenodd">
        <g id="adjust" transform="translate(0.500000, 0.000000)" fill="#000000" fill-rule="nonzero">
            <path d="M8.5,3.77475828e-16 C4.06638076,-1.50990331e-15 0.472222222,3.80557963 0.472222222,8.5 C0.472222222,10.7543402 1.31800352,12.9163484 2.8235039,14.5104076 C4.32900427,16.1044669 6.37090096,17 8.5,17 C10.629099,17 12.6709957,16.1044669 14.1764961,14.5104076 C15.6819965,12.9163484 16.5277778,10.7543402 16.5277778,8.5 C16.5277778,6.24565984 15.6819965,4.08365158 14.1764961,2.48959236 C12.6709957,0.895533143 10.629099,1.88737914e-16 8.5,0 Z M8.5,15.3 C4.95975,15.3 2.07777778,12.2485 2.07777778,8.5 C2.07777778,4.7515 4.95975,1.7 8.5,1.7 C12.04025,1.7 14.9222222,4.7515 14.9222222,8.5 C14.9222222,12.2485 12.04025,15.3 8.5,15.3 Z" id="Shape"></path>
        </g>
    </g>
</svg>